#!OML:ASF F:\VICON\USERDATA\INSTALL\rory3\rory3.ASF
:FULLY-SPECIFIED
:DEGREES
69
root 0.6554399197841054 17.933660407836175 34.67390368049132 3.422948909735045 2.084214389917304 -1.3552762230883313
lfemur -4.912331287320801 -2.690346403461387 -20.556342736563025
ltibia 36.12109913365395
lfoot 16.361009220776484 -12.693992124486432
ltoes -1.526032521564412
rfemur -22.621878862749845 2.105677603413236 29.300072813625995
rtibia 36.41895265419942
rfoot -5.551420475337405 -3.513791648468164
rtoes 5.391171784740834
lowerback 11.323143490021023 -1.2054192191710964 2.61549651832458
upperback -1.2171026544090866 -1.307657358114278 2.308878552583169
thorax -6.871782307128104 -0.7379792470926212 1.8683991046115995
lowerneck -17.85826034516807 -2.6423192591237408 -3.7697423927374096
upperneck 18.528820036009403 -2.8928245830236694 1.7825075721450039
head 8.749619660078341 -1.3945850932925572 0.9518944721615796
lclavicle -2.267754227730143e-15 6.80467667094207e-16
lhumerus -44.80856796555182 -6.744469533372456 89.66594014495617
lradius 72.20497438821651
lwrist 19.299014258635506
lhand -26.52197708213267 11.543010748148077
lfingers 7.125019999999999
lthumb 0.28316243911450967 41.38057513764622
rclavicle -2.2607203402478156e-15 6.854193849927445e-16
rhumerus -41.420192454397494 -7.4391878276336065 -86.84318485820147
rradius 65.91575771030038
rwrist -0.0921394020235784
rhand -16.38187915377277 30.596663301338083
rfingers 7.125019999999999
rthumb 9.55463579692458 1.8262909060184853
70
root 0.6757830947271477 17.76775822075013 35.01400498585033 2.6672221094256927 2.7446383868821185 -0.25792165712156834
lfemur -5.419092053245339 -3.335543247636013 -21.279551322544275
ltibia 37.50616878339029
lfoot 14.343975428137854 -12.17431205543755
ltoes -3.6327890101233904
rfemur -21.952375056837777 1.1579834916245737 28.5109587391668
rtibia 38.98840217067078
rfoot -7.74703497580539 -3.714587122625023
rtoes 8.499559909585777
lowerback 11.733665738324046 -1.1864444954036153 1.892714067755511
upperback -1.1107149554797688 -1.4547798930806142 1.9458262060520672
thorax -7.005273250011795 -0.8114353578307445 1.9827638937434122
lowerneck -17.783920402181796 -2.6307013580796754 -3.7680270128154887
upperneck 18.442589026579554 -2.9111994679520223 1.7422038798219506
head 8.690928389632267 -1.3996049922266227 0.9516756819008027
lclavicle -2.2675421437049647e-15 6.806153096965485e-16
lhumerus -44.64113723815145 -6.375607055193444 89.98848195515973
lradius 71.55645335939825
lwrist 19.616766352415702
lhand -27.058086085486494 11.403221644126456
lfingers 7.125019999999999
lthumb -0.18785012577561205 41.378726363906146
rclavicle -2.2589297602823793e-15 6.866748319688928e-16
rhumerus -39.90365394220474 -6.173299612579949 -87.40720021165717
rradius 66.20592111780569
rwrist 0.17422664309040847
rhand -16.655650242973785 30.502364605942795
rfingers 7.125019999999999
rthumb 9.333193238235612 1.5772051898448063
71
root 0.6646964131359862 17.585539469356508 35.37732381198616 1.4016250009469937 2.968384287596453 0.1669445539243144
lfemur -5.5984851982333055 -3.426556777926948 -21.460991489639902
ltibia 38.94551527854592
lfoot 12.512389165149587 -11.35708881725992
ltoes -4.534704362768579
rfemur -21.84685892483841 0.5831158755322976 28.271393910507367
rtibia 42.7436073643834
rfoot -9.89163368965634 -4.476592822683359
rtoes 8.882945565689873
lowerback 12.431432374048462 -1.0494559201758313 1.4217933667881755
upperback -0.8927275611112535 -1.2783920314767419 1.762317480667483
thorax -7.209431958190851 -0.6871040630011405 2.1687985563053385
lowerneck -17.720984442449076 -2.651198618434978 -3.7010680638305633
upperneck 18.448577588223117 -2.9448479717481257 1.6415613920492163
head 8.699359736867265 -1.4181786562944079 0.9040790983935421
lclavicle -2.265442247163425e-15 6.820833718919227e-16
lhumerus -43.980262923948075 -6.321098229709078 90.38540821761593
lradius 70.85692599077184
lwrist 19.95471878828583
lhand -27.37711408233813 11.172382512471469
lfingers 7.125019999999999
lthumb -0.48306098874094855 41.53581167179246
rclavicle -2.259976813386376e-15 6.8594079860292e-16
rhumerus -38.44715787764734 -5.415332049549739 -87.78423822200911
rradius 66.15404614959269
rwrist 0.04001924744180818
rhand -16.944780689042968 30.464562808160107
rfingers 7.125019999999999
rthumb 9.04617411408285 1.412939053567288
72
root 0.6205115753696628 17.441868987285492 35.69551248694169 0.08239652137708964 -0.23793336458649367 -0.5341414844841719
lfemur -6.169272894505326 -1.003637138125494 -20.45034839722023
ltibia 41.54072616271498
lfoot 10.098893413047907 -9.84417998086165
ltoes -4.409967057568858
rfemur -22.027587451561196 2.750014626668593 29.02713529718461
rtibia 46.92438115229928
rfoot -11.134059259100258 -4.575652254329967
rtoes 9.808357228051019
lowerback 13.135751628225059 0.11168323926318302 1.2581200640945462
upperback -0.5823170608864044 0.3403306306248489 1.7491821603053805
thorax -7.379126357162621 0.154465141442095 2.0610920982019056
lowerneck -17.66527172632983 -2.705381590210071 -3.6113504693051013
upperneck 18.582926471979125 -3.007884614838484 1.532448166168488
head 8.73724155878485 -1.44361331280998 0.841122860085975
lclavicle -2.265211220355329e-15 6.822420530538676e-16
lhumerus -43.393489670381896 -6.321910475373661 90.62971642707157
lradius 69.7347835075815
lwrist 19.591027486014617
lhand -27.288673680843477 11.410222612231433
lfingers 7.125019999999999
lthumb -0.3539929638953953 42.1205488878865
rclavicle -2.2596146129099943e-15 6.861946592289163e-16
rhumerus -37.388690814359535 -5.04518098715736 -88.03054100529901
rradius 65.86593135328135
rwrist -0.08292038758198284
rhand -17.138857355821628 30.408079513337146
rfingers 7.125019999999999
rthumb 8.849230728069633 1.4549128985276727
